<svg xmlns="http://www.w3.org/2000/svg" viewBox="0 0 32 32" role="img" aria-label="Course Wright">
  <!-- Concept A short mark: green rounded tile, paper CW (Lora outlines) -->
  <rect width="32" height="32" rx="7.68" fill="#33604D"/>
  <path transform="translate(4.67 20.73) scale(0.01 -0.01)" d="M580 476.33Q568 563 521.17 608.33Q474.33 653.67 398.67 654.33Q346.33 654.33 304.83 630.83Q263.33 607.33 234.67 566.67Q206 526 191 472.33Q176 418.67 176 358Q176 269.33 204.33 201Q232.67 132.67 284.33 94Q336 55.33 405.33 55.33Q469 55.33 531.33 86.83Q593.67 118.33 635 175.67L675.67 139.33Q628.67 75 576 41.33Q523.33 7.67 472.5 -4.17Q421.67 -16 380.67 -16Q304.33 -16 241.5 11.33Q178.67 38.67 133.17 87.17Q87.67 135.67 63.17 200.17Q38.67 264.67 38.67 339.67Q38.67 408.67 60.5 475.67Q82.33 542.67 125.67 597Q169 651.33 234.83 683.67Q300.67 716 387.67 716Q432.33 716 480 702.67Q527.67 689.33 570.33 663L566 709H635.33V476.33Z" fill="#F7F5EE"/>
  <path transform="translate(13.71 20.73) scale(0.01 -0.01)" d="M276.67 -7.33 98.33 529.33Q86 566.33 79 592.5Q72 618.67 70.33 636.67Q53 635.67 38.67 635.33Q24.33 635 11 634V700H288.67V645Q244.67 644.67 229.17 627Q213.67 609.33 227.67 558.67Q243.33 498.67 260 443Q276.67 387.33 293 329Q303.67 291.33 313.5 258.67Q323.33 226 334.33 178.33H335.67Q340 193.33 347.17 219Q354.33 244.67 362.67 273Q371 301.33 377.67 324.84Q384.33 348.34 387.33 359Q407.33 422.67 426.83 484.5Q446.33 546.33 463.67 601.5Q481 656.67 493.67 700.67H564.33Q576.67 659 592 611.33Q607.33 563.67 623 514.33Q638.67 465 653.83 417.67Q669 370.33 681.67 329.67Q693.67 292 704.5 253Q715.33 214 725 173.67H726.67Q735.67 204.67 745.5 238.67Q755.33 272.67 765.67 308.67Q779 350.67 789.17 384.67Q799.33 418.67 807.5 447.33Q815.67 476 822.83 501.5Q830 527 837.33 552Q843.33 573.67 852.5 597.17Q861.67 620.67 875 637Q857.67 636 834.33 635.5Q811 635 797 634V700H1014.67V645Q988.67 643 969.17 632.33Q949.67 621.67 934 596.33Q918.33 571 902.67 524.33Q860.67 390.33 818.83 257.83Q777 125.33 734 -7.33H664.67L535.33 376Q523.67 410.67 515.17 444Q506.67 477.33 498.33 508.33Q492.33 477.33 484.83 448Q477.33 418.67 468 387.67L344.33 -7.33Z" fill="#F7F5EE"/>
</svg>
